# xmcd
#
# Track frame offsets:
#	150
#	13585
#	30922
#	47509
#	60688
#	75715
#	90080
#	106217
#	123816
#	139521
#
# Disc length: 2041 seconds
#
# Revision: 0
# Processed by: cddbd v1.4PL0 Copyright (c) Steve Scherf et al.
# Submitted via: EasyCDDAExtractor 4.5.0.2
#
DISCID=6507f70a
DTITLE=Holy Dunn - Life And Love And Allt The Stages
DYEAR=1900
DGENRE=Country
TTITLE0=I Am Who I Am
TTITLE1=It's Not About Blame
TTITLE2=The Wonder Of Love
TTITLE3=Rock-A-Billy
TTITLE4=Lovin' Every Minute
TTITLE5=Cowboys Are My Weakness
TTITLE6=What Kind Of Love
TTITLE7=Love Across The Line
TTITLE8=I'd Know That Heartache Anywhere
TTITLE9=1001 Ways
EXTD=
EXTT0=
EXTT1=
EXTT2=
EXTT3=
EXTT4=
EXTT5=
EXTT6=
EXTT7=
EXTT8=
EXTT9=
PLAYORDER=
